<?xml version="1.0" encoding="us-ascii" standalone="no"?><svg xmlns="http://www.w3.org/2000/svg" xmlns:xlink="http://www.w3.org/1999/xlink" contentStyleType="text/css" height="515px" preserveAspectRatio="none" style="width:476px;height:515px;background:#FFFFFF;" version="1.1" viewBox="0 0 476 515" width="476px" zoomAndPan="magnify"><defs/><g><rect fill="#FFFFFF" height="320.4609" style="stroke:#181818;stroke-width:1.0;" width="10" x="28.5" y="134.8594"/><rect fill="#FFFFFF" height="29.1328" style="stroke:#181818;stroke-width:1.0;" width="10" x="282.5" y="184.125"/><rect fill="#FFFFFF" height="29.1328" style="stroke:#181818;stroke-width:1.0;" width="10" x="282.5" y="417.1875"/><rect fill="#FFFFFF" height="29.1328" style="stroke:#181818;stroke-width:1.0;" width="10" x="416" y="300.6563"/><line style="stroke:#181818;stroke-width:0.5;stroke-dasharray:5.0,5.0;" x1="33" x2="33" y1="52.5938" y2="464.3203"/><line style="stroke:#181818;stroke-width:0.5;stroke-dasharray:5.0,5.0;" x1="287" x2="287" y1="52.5938" y2="464.3203"/><line style="stroke:#181818;stroke-width:0.5;stroke-dasharray:5.0,5.0;" x1="421" x2="421" y1="52.5938" y2="464.3203"/><rect fill="#FFFFFF" height="30.2969" rx="2.5" ry="2.5" style="stroke:#181818;stroke-width:0.5;" width="57" x="5" y="21.2969"/><text fill="#000000" font-family="sans-serif" font-size="14" lengthAdjust="spacing" textLength="43" x="12" y="41.292">Client</text><rect fill="#FFFFFF" height="30.2969" rx="2.5" ry="2.5" style="stroke:#181818;stroke-width:0.5;" width="57" x="5" y="463.3203"/><text fill="#000000" font-family="sans-serif" font-size="14" lengthAdjust="spacing" textLength="43" x="12" y="483.3154">Client</text><rect fill="#90EE90" height="46.5938" rx="2.5" ry="2.5" style="stroke:#181818;stroke-width:0.5;" width="161" x="207" y="5"/><text fill="#000000" font-family="sans-serif" font-size="14" lengthAdjust="spacing" textLength="54" x="260.5" y="24.9951">WORKS</text><text fill="#000000" font-family="sans-serif" font-size="14" lengthAdjust="spacing" textLength="147" x="214" y="41.292">Authorization server</text><rect fill="#90EE90" height="46.5938" rx="2.5" ry="2.5" style="stroke:#181818;stroke-width:0.5;" width="161" x="207" y="463.3203"/><text fill="#000000" font-family="sans-serif" font-size="14" lengthAdjust="spacing" textLength="54" x="260.5" y="483.3154">WORKS</text><text fill="#000000" font-family="sans-serif" font-size="14" lengthAdjust="spacing" textLength="147" x="214" y="499.6123">Authorization server</text><rect fill="#90EE90" height="46.5938" rx="2.5" ry="2.5" style="stroke:#181818;stroke-width:0.5;" width="86" x="378" y="5"/><text fill="#000000" font-family="sans-serif" font-size="14" lengthAdjust="spacing" textLength="54" x="394" y="24.9951">WORKS</text><text fill="#000000" font-family="sans-serif" font-size="14" lengthAdjust="spacing" textLength="72" x="385" y="41.292">API server</text><rect fill="#90EE90" height="46.5938" rx="2.5" ry="2.5" style="stroke:#181818;stroke-width:0.5;" width="86" x="378" y="463.3203"/><text fill="#000000" font-family="sans-serif" font-size="14" lengthAdjust="spacing" textLength="54" x="394" y="483.3154">WORKS</text><text fill="#000000" font-family="sans-serif" font-size="14" lengthAdjust="spacing" textLength="72" x="385" y="499.6123">API server</text><rect fill="#FFFFFF" height="320.4609" style="stroke:#181818;stroke-width:1.0;" width="10" x="28.5" y="134.8594"/><rect fill="#FFFFFF" height="29.1328" style="stroke:#181818;stroke-width:1.0;" width="10" x="282.5" y="184.125"/><rect fill="#FFFFFF" height="29.1328" style="stroke:#181818;stroke-width:1.0;" width="10" x="282.5" y="417.1875"/><rect fill="#FFFFFF" height="29.1328" style="stroke:#181818;stroke-width:1.0;" width="10" x="416" y="300.6563"/><rect fill="#EEEEEE" height="3" style="stroke:#EEEEEE;stroke-width:1.0;" width="469" x="0" y="83.1602"/><line style="stroke:#000000;stroke-width:1.0;" x1="0" x2="469" y1="83.1602" y2="83.1602"/><line style="stroke:#000000;stroke-width:1.0;" x1="0" x2="469" y1="86.1602" y2="86.1602"/><rect fill="#EEEEEE" height="23.1328" style="stroke:#000000;stroke-width:2.0;" width="156" x="156.5" y="72.5938"/><text fill="#000000" font-family="sans-serif" font-size="13" font-weight="bold" lengthAdjust="spacing" textLength="137" x="162.5" y="88.6606">Get Access Token</text><line style="stroke:#181818;stroke-width:1.0;" x1="33.5" x2="80.5" y1="121.8594" y2="121.8594"/><line style="stroke:#181818;stroke-width:1.0;" x1="80.5" x2="80.5" y1="121.8594" y2="134.8594"/><line style="stroke:#181818;stroke-width:1.0;" x1="39.5" x2="80.5" y1="134.8594" y2="134.8594"/><polygon fill="#181818" points="49.5,130.8594,39.5,134.8594,49.5,138.8594,45.5,134.8594" style="stroke:#181818;stroke-width:1.0;"/><text fill="#000000" font-family="sans-serif" font-size="13" font-weight="bold" lengthAdjust="spacing" textLength="9" x="45.5" y="116.7935">1</text><text fill="#000000" font-family="sans-serif" font-size="13" lengthAdjust="spacing" textLength="89" x="58.5" y="116.7935">Generate JWT</text><polygon fill="#181818" points="270.5,180.125,280.5,184.125,270.5,188.125,274.5,184.125" style="stroke:#181818;stroke-width:1.0;"/><line style="stroke:#181818;stroke-width:1.0;" x1="38.5" x2="276.5" y1="184.125" y2="184.125"/><text fill="#000000" font-family="sans-serif" font-size="13" font-weight="bold" lengthAdjust="spacing" textLength="9" x="45.5" y="171.4927">2</text><text fill="#000000" font-family="sans-serif" font-size="13" lengthAdjust="spacing" textLength="187" x="58.5" y="163.9263">Request to get Access Token</text><text fill="#000000" font-family="sans-serif" font-size="13" lengthAdjust="spacing" textLength="56" x="58.5" y="179.0591">with JWT</text><polygon fill="#181818" points="49.5,209.2578,39.5,213.2578,49.5,217.2578,45.5,213.2578" style="stroke:#181818;stroke-width:1.0;"/><line style="stroke:#181818;stroke-width:1.0;stroke-dasharray:2.0,2.0;" x1="43.5" x2="286.5" y1="213.2578" y2="213.2578"/><text fill="#000000" font-family="sans-serif" font-size="13" font-weight="bold" lengthAdjust="spacing" textLength="8" x="55.5" y="208.1919">3</text><text fill="#000000" font-family="sans-serif" font-size="13" lengthAdjust="spacing" textLength="189" x="67.5" y="208.1919">Access Token, Refresh Token</text><rect fill="#EEEEEE" height="3" style="stroke:#EEEEEE;stroke-width:1.0;" width="469" x="0" y="241.8242"/><line style="stroke:#000000;stroke-width:1.0;" x1="0" x2="469" y1="241.8242" y2="241.8242"/><line style="stroke:#000000;stroke-width:1.0;" x1="0" x2="469" y1="244.8242" y2="244.8242"/><rect fill="#EEEEEE" height="23.1328" style="stroke:#000000;stroke-width:2.0;" width="111" x="179" y="231.2578"/><text fill="#000000" font-family="sans-serif" font-size="13" font-weight="bold" lengthAdjust="spacing" textLength="92" x="185" y="247.3247">API Request</text><polygon fill="#181818" points="404,296.6563,414,300.6563,404,304.6563,408,300.6563" style="stroke:#181818;stroke-width:1.0;"/><line style="stroke:#181818;stroke-width:1.0;" x1="38.5" x2="410" y1="300.6563" y2="300.6563"/><text fill="#000000" font-family="sans-serif" font-size="13" font-weight="bold" lengthAdjust="spacing" textLength="9" x="45.5" y="288.0239">1</text><text fill="#000000" font-family="sans-serif" font-size="13" lengthAdjust="spacing" textLength="73" x="58.5" y="280.4575">API request</text><text fill="#000000" font-family="sans-serif" font-size="13" lengthAdjust="spacing" textLength="119" x="58.5" y="295.5903">with Access Token</text><polygon fill="#181818" points="49.5,325.7891,39.5,329.7891,49.5,333.7891,45.5,329.7891" style="stroke:#181818;stroke-width:1.0;"/><line style="stroke:#181818;stroke-width:1.0;stroke-dasharray:2.0,2.0;" x1="43.5" x2="420" y1="329.7891" y2="329.7891"/><text fill="#000000" font-family="sans-serif" font-size="13" font-weight="bold" lengthAdjust="spacing" textLength="9" x="55.5" y="324.7231">2</text><text fill="#000000" font-family="sans-serif" font-size="13" lengthAdjust="spacing" textLength="83" x="68.5" y="324.7231">API response</text><rect fill="#EEEEEE" height="3" style="stroke:#EEEEEE;stroke-width:1.0;" width="469" x="0" y="358.3555"/><line style="stroke:#000000;stroke-width:1.0;" x1="0" x2="469" y1="358.3555" y2="358.3555"/><line style="stroke:#000000;stroke-width:1.0;" x1="0" x2="469" y1="361.3555" y2="361.3555"/><rect fill="#EEEEEE" height="23.1328" style="stroke:#000000;stroke-width:2.0;" width="187" x="141" y="347.7891"/><text fill="#000000" font-family="sans-serif" font-size="13" font-weight="bold" lengthAdjust="spacing" textLength="168" x="147" y="363.856">Refresh Access Token</text><polygon fill="#181818" points="270.5,413.1875,280.5,417.1875,270.5,421.1875,274.5,417.1875" style="stroke:#181818;stroke-width:1.0;"/><line style="stroke:#181818;stroke-width:1.0;" x1="38.5" x2="276.5" y1="417.1875" y2="417.1875"/><text fill="#000000" font-family="sans-serif" font-size="13" font-weight="bold" lengthAdjust="spacing" textLength="9" x="45.5" y="404.5552">1</text><text fill="#000000" font-family="sans-serif" font-size="13" lengthAdjust="spacing" textLength="212" x="58.5" y="396.9888">Request to refresh Access Token</text><text fill="#000000" font-family="sans-serif" font-size="13" lengthAdjust="spacing" textLength="124" x="58.5" y="412.1216">with Refresh Token</text><polygon fill="#181818" points="49.5,442.3203,39.5,446.3203,49.5,450.3203,45.5,446.3203" style="stroke:#181818;stroke-width:1.0;"/><line style="stroke:#181818;stroke-width:1.0;stroke-dasharray:2.0,2.0;" x1="43.5" x2="286.5" y1="446.3203" y2="446.3203"/><text fill="#000000" font-family="sans-serif" font-size="13" font-weight="bold" lengthAdjust="spacing" textLength="9" x="55.5" y="441.2544">2</text><text fill="#000000" font-family="sans-serif" font-size="13" lengthAdjust="spacing" textLength="88" x="68.5" y="441.2544">Access Token</text><!--SRC=[ZL3DQiCm3BxxAKHxtLuWa47PO7GzhBI5N7hnWXQRTd8coIdiwPSuRMYwREncMT-lRDHWI_MDLOH0njIMrPU-jgGmUpnw99s15NZ2ffzWVd9USGmiNZUhxPuMKLrW_sNL1m91Rf0JkmXya6wxJNymF_hAQSM8D2sqNlwahvSJR9Fdy8mAYx944TY50nBakR5jCOeVRyXcY7x_C3opbaJ8NUkNOdSDkOcQmGO_8ug21gXkZFPqykgI0gD6fj7shgM-CuhhnnIrAtOH_3Nbk6wMIDoJpexNDeDrGaaTI31vNTp_Tvg_UlE4qZd9kEB45Ru1]--></g></svg>